<?xml version="1.0" encoding="UTF-8" standalone="no"?>
<!-- Created with Inkscape (http://www.inkscape.org/) -->

<svg
   width="512"
   height="512"
   viewBox="0 0 512 512"
   version="1.1"
   id="svg1"
   xmlns:xlink="http://www.w3.org/1999/xlink"
   xmlns="http://www.w3.org/2000/svg"
   xmlns:svg="http://www.w3.org/2000/svg">
  <defs
     id="defs1">
    <linearGradient
       id="linearGradient11">
      <stop
         style="stop-color:#ffff83;stop-opacity:1;"
         offset="0"
         id="stop11" />
      <stop
         style="stop-color:#ffff83;stop-opacity:0;"
         offset="1"
         id="stop12" />
    </linearGradient>
    <linearGradient
       id="linearGradient9">
      <stop
         style="stop-color:#00ffff;stop-opacity:1;"
         offset="0"
         id="stop9" />
      <stop
         style="stop-color:#00ffff;stop-opacity:0;"
         offset="1"
         id="stop10" />
    </linearGradient>
    <linearGradient
       xlink:href="#linearGradient9"
       id="linearGradient10"
       x1="92.788101"
       y1="121.11524"
       x2="92.565056"
       y2="57.323421"
       gradientUnits="userSpaceOnUse" />
    <linearGradient
       xlink:href="#linearGradient11"
       id="linearGradient12"
       x1="93.011154"
       y1="33.011154"
       x2="92.788101"
       y2="68.921936"
       gradientUnits="userSpaceOnUse" />
    <linearGradient
       xlink:href="#linearGradient9"
       id="linearGradient14"
       gradientUnits="userSpaceOnUse"
       x1="92.788101"
       y1="121.11524"
       x2="92.565056"
       y2="57.323421" />
    <linearGradient
       xlink:href="#linearGradient11"
       id="linearGradient15"
       gradientUnits="userSpaceOnUse"
       x1="93.011154"
       y1="33.011154"
       x2="92.788101"
       y2="68.921936" />
  </defs>
  <g
     id="layer4"
     transform="matrix(0.98113464,0,0,1.7922706,-13.875339,20.277218)">
    <rect
       style="fill:#000000"
       id="rect1"
       width="521.84479"
       height="285.67114"
       x="14.142136"
       y="-11.313704" />
  </g>
  <g
     id="layer2"
     transform="matrix(3.1014465,0,0,3.0228824,-26.307194,-23.545523)">
    <g
       id="g19"
       transform="matrix(1.0433868,0,0,1,-4.3019056,0)">
      <g
         id="g16">
        <g
           id="g12"
           transform="rotate(38,73.241324,87.047995)">
          <path
             id="rect7"
             style="opacity:1;fill:#ffffff"
             d="m 92.869424,29.503531 c 2.62129,0 4.73157,2.11028 4.73157,4.731569 0,0 -1.734909,22.821133 -1.734909,42.483434 0,23.237263 1.734909,44.577446 1.734909,44.577446 0,2.62129 -2.11028,4.73157 -4.73157,4.73157 -2.62129,0 -4.73157,-2.11028 -4.73157,-4.73157 0,0 2.172335,-19.82052 1.892628,-44.319034 C 89.813201,57.946109 88.137854,34.2351 88.137854,34.2351 c 0,-2.621289 2.11028,-4.731569 4.73157,-4.731569 z" />
          <path
             id="path7"
             style="opacity:1;fill:url(#linearGradient10);fill-opacity:1"
             d="m 92.869424,29.503531 c 2.62129,0 4.73157,2.11028 4.73157,4.731569 0,0 -1.734909,22.821133 -1.734909,42.483434 0,23.237263 1.734909,44.577446 1.734909,44.577446 0,2.62129 -2.11028,4.73157 -4.73157,4.73157 -2.62129,0 -4.73157,-2.11028 -4.73157,-4.73157 0,0 2.172335,-19.82052 1.892628,-44.319034 C 89.813201,57.946109 88.137854,34.2351 88.137854,34.2351 c 0,-2.621289 2.11028,-4.731569 4.73157,-4.731569 z" />
          <path
             id="path10"
             style="opacity:1;fill:url(#linearGradient12);fill-opacity:1"
             d="m 92.869424,29.503531 c 2.62129,0 4.73157,2.11028 4.73157,4.731569 0,0 -1.734909,22.821133 -1.734909,42.483434 0,23.237263 1.734909,44.577446 1.734909,44.577446 0,2.62129 -2.11028,4.73157 -4.73157,4.73157 -2.62129,0 -4.73157,-2.11028 -4.73157,-4.73157 0,0 2.172335,-19.82052 1.892628,-44.319034 C 89.813201,57.946109 88.137854,34.2351 88.137854,34.2351 c 0,-2.621289 2.11028,-4.731569 4.73157,-4.731569 z" />
        </g>
        <g
           id="g14"
           transform="rotate(-38,114.05143,82.535133)">
          <path
             id="path12"
             style="opacity:1;fill:#ffffff"
             d="m 92.869424,29.503531 c 2.62129,0 4.73157,2.11028 4.73157,4.731569 0,0 -1.734909,22.821133 -1.734909,42.483434 0,23.237263 1.734909,44.577446 1.734909,44.577446 0,2.62129 -2.11028,4.73157 -4.73157,4.73157 -2.62129,0 -4.73157,-2.11028 -4.73157,-4.73157 0,0 2.172335,-19.82052 1.892628,-44.319034 C 89.813201,57.946109 88.137854,34.2351 88.137854,34.2351 c 0,-2.621289 2.11028,-4.731569 4.73157,-4.731569 z" />
          <path
             id="path13"
             style="opacity:1;fill:url(#linearGradient14);fill-opacity:1"
             d="m 92.869424,29.503531 c 2.62129,0 4.73157,2.11028 4.73157,4.731569 0,0 -1.734909,22.821133 -1.734909,42.483434 0,23.237263 1.734909,44.577446 1.734909,44.577446 0,2.62129 -2.11028,4.73157 -4.73157,4.73157 -2.62129,0 -4.73157,-2.11028 -4.73157,-4.73157 0,0 2.172335,-19.82052 1.892628,-44.319034 C 89.813201,57.946109 88.137854,34.2351 88.137854,34.2351 c 0,-2.621289 2.11028,-4.731569 4.73157,-4.731569 z" />
          <path
             id="path14"
             style="opacity:1;fill:url(#linearGradient15);fill-opacity:1"
             d="m 92.869424,29.503531 c 2.62129,0 4.73157,2.11028 4.73157,4.731569 0,0 -1.734909,22.821133 -1.734909,42.483434 0,23.237263 1.734909,44.577446 1.734909,44.577446 0,2.62129 -2.11028,4.73157 -4.73157,4.73157 -2.62129,0 -4.73157,-2.11028 -4.73157,-4.73157 0,0 2.172335,-19.82052 1.892628,-44.319034 C 89.813201,57.946109 88.137854,34.2351 88.137854,34.2351 c 0,-2.621289 2.11028,-4.731569 4.73157,-4.731569 z" />
        </g>
      </g>
      <g
         id="g17">
        <path
           id="path17"
           style="fill:#00ffff;stroke-width:1.01697"
           d="m 116.09151,130.22906 -21.568915,-26.44979 -21.75155,26.5 21.813025,-17.5 z" />
        <path
           id="path24"
           style="fill:#ffff83;fill-opacity:1;stroke-width:1.01697"
           d="m 116.09151,53.23673 -21.568915,26.44979 -21.75155,-26.5 21.813025,17.5 z" />
      </g>
    </g>
    <g
       id="g18">
      <path
         d="m 18.800001,92.914481 q 0,-3.294275 1.471356,-5.247403 1.484377,-1.953127 4.049484,-1.953127 2.057294,0 3.398442,1.53646 v -7.187509 h 3.776046 v 20.000028 h -3.398441 l -0.182292,-1.4974 q -1.406252,1.75781 -3.619797,1.75781 -2.486982,0 -3.9974,-1.953123 -1.497398,-1.966149 -1.497398,-5.455736 z m 3.763025,0.273438 q 0,1.979169 0.690105,3.033858 0.690105,1.054688 2.005211,1.054688 1.744794,0 2.460941,-1.471356 v -5.559902 q -0.703126,-1.471357 -2.434899,-1.471357 -2.721358,0 -2.721358,4.414069 z m 11.253036,-0.29948 q 0,-2.096357 0.807292,-3.736984 0.807293,-1.640627 2.317712,-2.539066 1.523439,-0.898438 3.52865,-0.898438 2.851566,0 4.648443,1.744794 1.809898,1.744794 2.018232,4.739589 l 0.02604,0.963543 q 0,3.242191 -1.809898,5.20834 -1.809899,1.953123 -4.856777,1.953123 -3.046879,0 -4.869798,-1.953123 Q 33.81606,96.417089 33.81606,93.05771 Z m 3.763025,0.273438 q 0,2.005211 0.755209,3.07292 0.75521,1.054689 2.161462,1.054689 1.367189,0 2.135419,-1.041668 0.76823,-1.054689 0.76823,-3.359379 0,-1.966148 -0.76823,-3.046879 -0.76823,-1.08073 -2.161461,-1.08073 -1.38021,0 -2.13542,1.08073 -0.755209,1.06771 -0.755209,3.320317 z m 24.143677,1.783856 1.848961,-8.971365 h 3.632817 l -3.593754,14.088562 h -3.151046 l -2.669274,-8.867201 -2.669275,8.867201 H 51.983169 L 48.389414,85.974368 h 3.632817 l 1.83594,8.958344 2.578128,-8.958344 h 2.721358 z m 10.797303,-8.971365 0.117188,1.627606 q 1.510418,-1.888023 4.049484,-1.888023 2.239586,0 3.333337,1.315106 1.093752,1.315105 1.119793,3.932296 v 9.101577 h -3.763025 v -9.010431 q 0,-1.197918 -0.520834,-1.731773 -0.520834,-0.546876 -1.731773,-0.546876 -1.588544,0 -2.382816,1.354169 v 9.934911 H 68.978396 V 85.974368 Z"
         id="text1"
         style="font-weight:bold;font-size:26.6667px;font-family:Roboto;-inkscape-font-specification:'Roboto Bold';text-align:center;letter-spacing:-0.01px;text-anchor:middle;fill:#ffffff"
         aria-label="down " />
      <path
         d="m 112.40627,82.510822 v 3.463546 h 2.40885 v 2.76042 h -2.40885 v 7.031259 q 0,0.781251 0.29948,1.119793 0.29948,0.338542 1.14583,0.338542 0.625,0 1.10677,-0.09115 v 2.851566 q -1.10677,0.338542 -2.27865,0.338542 -3.95833,0 -4.03646,-3.997401 v -7.591155 h -2.05729 v -2.76042 h 2.05729 v -3.463546 z m 3.51865,10.377617 q 0,-2.096357 0.80729,-3.736984 0.80729,-1.640627 2.31771,-2.539066 1.52344,-0.898438 3.52865,-0.898438 2.85157,0 4.64844,1.744794 1.8099,1.744794 2.01824,4.739589 l 0.026,0.963543 q 0,3.242191 -1.8099,5.20834 -1.8099,1.953123 -4.85678,1.953123 -3.04688,0 -4.86979,-1.953123 -1.8099,-1.953128 -1.8099,-5.312507 z m 3.76302,0.273438 q 0,2.005211 0.75521,3.07292 0.75521,1.054689 2.16146,1.054689 1.36719,0 2.13542,-1.041668 0.76823,-1.054689 0.76823,-3.359379 0,-1.966148 -0.76823,-3.046879 -0.76823,-1.08073 -2.16146,-1.08073 -1.38021,0 -2.13542,1.08073 -0.75521,1.06771 -0.75521,3.320317 z m 24.14368,1.783856 1.84896,-8.971365 h 3.63282 l -3.59376,14.088562 h -3.15104 l -2.66928,-8.867201 -2.66927,8.867201 h -3.13803 l -3.59375,-14.088562 h 3.63282 l 1.83594,8.958344 2.57812,-8.958344 h 2.72136 z m 10.7973,-8.971365 0.11719,1.627606 q 1.51042,-1.888023 4.04949,-1.888023 2.23958,0 3.33333,1.315106 1.09375,1.315105 1.1198,3.932296 v 9.101577 h -3.76303 v -9.010431 q 0,-1.197918 -0.52083,-1.731773 -0.52084,-0.546876 -1.73178,-0.546876 -1.58854,0 -2.38281,1.354169 v 9.934911 h -3.76303 V 85.974368 Z"
         id="text17"
         style="font-weight:bold;font-size:26.6667px;font-family:Roboto;-inkscape-font-specification:'Roboto Bold';text-align:center;letter-spacing:-0.01px;text-anchor:middle;fill:#ffffff"
         aria-label="town " />
    </g>
  </g>
</svg>